<?xml version="1.0" standalone="no"?>
<!DOCTYPE svg PUBLIC "-//W3C//DTD SVG 20010904//EN"
 "http://www.w3.org/TR/2001/REC-SVG-20010904/DTD/svg10.dtd">
<svg version="1.0" xmlns="http://www.w3.org/2000/svg"
 width="500.000000pt" height="500.000000pt" viewBox="0 0 500.000000 500.000000"
 preserveAspectRatio="xMidYMid meet">

<g transform="translate(0.000000,500.000000) scale(0.100000,-0.100000)"
fill="#000000" stroke="none">
<path d="M1718 4179 c-128 -14 -230 -62 -311 -148 -72 -75 -103 -132 -128
-232 -19 -72 -21 -102 -16 -209 6 -143 33 -259 95 -411 60 -146 61 -147 62
-50 0 73 -5 101 -40 202 -51 146 -70 246 -70 358 0 198 76 332 229 404 255
120 691 -11 1119 -335 56 -43 106 -78 111 -78 24 0 21 42 -6 90 -59 106 -372
285 -633 363 -148 45 -286 60 -412 46z"/>
<path d="M3131 3951 c-7 -5 -16 -32 -19 -60 -5 -53 -22 -73 -76 -87 -21 -5
-32 1 -62 35 -21 23 -44 41 -51 41 -8 0 -34 -14 -59 -30 -50 -35 -55 -55 -23
-107 23 -37 21 -66 -10 -104 -18 -22 -22 -23 -72 -12 -30 6 -59 8 -66 6 -16
-6 -45 -96 -41 -124 2 -16 15 -26 43 -36 48 -16 65 -37 65 -77 0 -42 -8 -52
-63 -75 -54 -23 -57 -37 -31 -113 16 -48 35 -61 69 -47 45 17 83 10 104 -20
34 -47 29 -51 -64 -51 l-85 0 0 -35 c0 -33 -2 -35 -35 -35 l-35 0 0 -195 0
-195 35 0 35 0 0 75 0 75 135 0 135 0 0 35 0 35 -135 0 -135 0 0 85 0 85 65 0
c62 0 65 -1 65 -24 0 -18 13 -32 47 -55 25 -17 52 -31 59 -31 7 0 25 16 40 35
14 19 30 35 35 35 5 0 9 -79 9 -175 l0 -175 35 0 35 0 0 171 c0 132 3 170 13
167 6 -3 14 -28 17 -56 3 -28 11 -57 17 -63 7 -7 36 -13 64 -14 67 -3 89 17
89 81 0 42 2 46 35 60 52 22 69 18 104 -26 17 -22 37 -40 43 -40 6 0 33 14 60
31 54 35 62 63 28 106 -28 36 -25 70 9 104 29 29 29 29 77 14 58 -17 74 -8 92
54 21 68 17 80 -35 102 -55 23 -63 33 -63 76 0 34 25 60 80 83 20 8 30 19 30
34 0 33 -29 114 -43 119 -7 2 -36 0 -65 -6 -48 -10 -54 -9 -74 11 -29 28 -29
79 0 119 27 39 22 52 -33 92 -56 40 -77 39 -106 -4 -31 -45 -51 -51 -97 -28
-33 16 -38 23 -44 66 -3 27 -12 55 -18 63 -14 16 -106 20 -129 5z m165 -278
c73 -25 154 -110 178 -187 44 -141 -19 -288 -152 -353 -76 -37 -183 -39 -252
-4 -182 93 -225 317 -89 465 81 89 199 119 315 79z"/>
<path d="M1703 3590 c-98 -5 -125 -17 -167 -74 -21 -27 -21 -38 -21 -511 0
-475 0 -484 21 -512 11 -15 38 -38 60 -50 l39 -23 764 0 c762 0 765 0 809 21
66 33 82 74 82 222 l0 117 -32 0 c-18 0 -38 -4 -44 -8 -7 -4 -13 -49 -16 -110
-3 -89 -6 -105 -26 -125 l-23 -22 -748 0 c-722 0 -750 1 -770 19 -21 19 -21
24 -21 472 l0 453 26 20 c26 21 36 21 485 21 l458 0 10 38 c6 20 11 42 11 47
0 11 -724 15 -897 5z"/>
<path d="M1630 3055 l0 -35 83 0 c51 0 88 -5 95 -12 8 -8 12 -66 12 -195 l0
-183 35 0 35 0 0 196 0 196 -34 34 c-34 34 -34 34 -130 34 l-96 0 0 -35z"/>
<path d="M1892 3058 l3 -33 98 -3 97 -3 0 36 0 35 -101 0 -100 0 3 -32z"/>
<path d="M2200 3055 c0 -34 -1 -35 -40 -35 l-40 0 0 -195 0 -195 195 0 195 0
0 35 0 35 -155 0 -155 0 0 160 0 160 144 0 c121 0 146 -3 157 -17 10 -12 14
-54 16 -152 1 -75 2 -139 2 -143 1 -5 17 -8 36 -8 l35 0 0 146 c0 234 -10 244
-240 244 l-150 0 0 -35z"/>
<path d="M3457 2768 c76 -181 109 -365 92 -516 -24 -221 -197 -362 -442 -362
-157 0 -338 50 -532 148 -101 51 -117 56 -192 60 -46 2 -83 1 -83 -4 0 -20
290 -164 408 -203 175 -58 402 -78 525 -46 195 51 330 195 373 395 28 129 7
320 -53 507 l-27 82 -48 11 c-27 5 -51 10 -53 10 -2 0 13 -37 32 -82z"/>
<path d="M1433 2295 c-11 -30 19 -77 61 -96 37 -17 71 -19 356 -19 l315 0 15
33 c9 18 25 34 40 38 14 4 95 7 180 7 85 0 166 -3 180 -7 15 -4 31 -20 40 -38
l15 -33 325 0 c301 0 327 1 356 19 17 10 36 33 43 50 28 65 99 61 -959 61
-845 0 -961 -2 -967 -15z"/>
<path d="M1425 1680 c3 -5 13 -10 21 -10 10 0 14 -13 14 -50 0 -27 5 -50 10
-50 6 0 10 23 10 50 0 38 4 50 15 50 8 0 15 5 15 10 0 6 -21 10 -46 10 -27 0
-43 -4 -39 -10z"/>
<path d="M1550 1630 l0 -60 40 0 c22 0 40 5 40 10 0 6 -11 10 -25 10 -16 0
-25 6 -25 15 0 8 9 15 20 15 11 0 20 5 20 10 0 6 -9 10 -20 10 -11 0 -20 7
-20 15 0 9 9 15 25 15 14 0 25 5 25 10 0 6 -18 10 -40 10 l-40 0 0 -60z"/>
<path d="M1682 1678 c-15 -15 -16 -80 0 -96 16 -16 43 -15 58 2 10 13 7 15
-17 13 -26 -2 -28 1 -31 37 -3 39 -3 39 28 32 23 -4 30 -2 28 7 -6 17 -50 21
-66 5z"/>
<path d="M1800 1630 c0 -33 4 -60 10 -60 6 0 10 11 10 25 0 16 6 25 15 25 9 0
15 -9 15 -25 0 -14 5 -25 10 -25 6 0 10 27 10 60 0 33 -4 60 -10 60 -5 0 -10
-11 -10 -25 0 -16 -6 -25 -15 -25 -9 0 -15 9 -15 25 0 14 -4 25 -10 25 -6 0
-10 -27 -10 -60z"/>
<path d="M1910 1631 c0 -69 17 -83 22 -18 l3 42 14 -42 c21 -64 41 -56 41 17
0 64 -19 85 -21 23 l-1 -38 -12 35 c-7 19 -20 36 -29 38 -14 3 -17 -6 -17 -57z"/>
<path d="M2044 1677 c-3 -8 -4 -34 -2 -58 3 -41 5 -44 33 -44 36 0 55 38 39
83 -11 31 -60 44 -70 19z m46 -47 c0 -29 -4 -40 -15 -40 -11 0 -15 11 -15 40
0 29 4 40 15 40 11 0 15 -11 15 -40z"/>
<path d="M2160 1630 l0 -60 40 0 c22 0 40 5 40 10 0 6 -12 10 -28 10 -27 0
-28 2 -26 50 0 35 -3 50 -13 50 -9 0 -13 -17 -13 -60z"/>
<path d="M2284 1676 c-3 -7 -4 -33 -2 -57 3 -37 7 -45 26 -47 13 -2 30 2 38 8
17 15 19 81 2 98 -16 16 -57 15 -64 -2z m51 -46 c0 -25 -5 -36 -17 -38 -15 -3
-18 4 -18 38 0 34 3 41 18 38 12 -2 17 -13 17 -38z"/>
<path d="M2411 1676 c-17 -21 -10 -87 12 -100 24 -15 51 3 55 38 3 21 -1 26
-17 26 -12 0 -21 -4 -21 -10 0 -5 5 -10 10 -10 6 0 10 -7 10 -15 0 -8 -9 -15
-20 -15 -17 0 -20 7 -20 41 0 41 1 41 30 36 23 -5 28 -3 23 8 -7 19 -47 19
-62 1z"/>
<path d="M2525 1673 c5 -10 13 -37 19 -60 11 -46 26 -57 26 -20 1 12 7 33 15
47 17 29 19 50 6 50 -5 0 -14 -12 -19 -27 l-9 -28 -13 28 c-14 29 -37 39 -25
10z"/>
<path d="M2771 1671 c-26 -47 -3 -106 39 -99 35 5 38 27 3 25 -26 -2 -28 1
-28 33 0 32 2 35 28 33 36 -2 31 21 -6 25 -18 2 -29 -3 -36 -17z"/>
<path d="M2894 1677 c-3 -8 -4 -34 -2 -58 3 -41 5 -44 33 -44 36 0 55 38 39
83 -11 31 -60 44 -70 19z m46 -47 c0 -29 -4 -40 -15 -40 -11 0 -15 11 -15 40
0 29 4 40 15 40 11 0 15 -11 15 -40z"/>
<path d="M3000 1630 c0 -33 4 -60 10 -60 6 0 10 19 10 42 0 38 1 40 14 23 13
-18 13 -18 24 1 10 16 11 13 12 -23 0 -24 5 -43 10 -43 6 0 10 27 10 60 0 45
-3 60 -14 60 -8 0 -18 -10 -22 -22 l-7 -23 -10 23 c-20 44 -37 26 -37 -38z"/>
<path d="M3130 1630 c0 -33 4 -60 10 -60 6 0 10 11 10 24 0 19 6 25 28 28 20
2 28 9 30 27 4 28 -12 41 -50 41 -27 0 -28 -1 -28 -60z m60 25 c0 -8 -9 -15
-20 -15 -11 0 -20 7 -20 15 0 8 9 15 20 15 11 0 20 -7 20 -15z"/>
<path d="M3270 1666 c-17 -45 -23 -96 -11 -96 6 0 11 7 11 15 0 8 9 15 20 15
11 0 20 -7 20 -15 0 -8 6 -15 13 -15 11 0 11 11 -2 60 -16 63 -35 77 -51 36z
m26 -43 c-11 -11 -19 6 -11 24 8 17 8 17 12 0 3 -10 2 -21 -1 -24z"/>
<path d="M3370 1630 c0 -67 20 -84 21 -17 l1 42 15 -42 c22 -65 43 -56 43 17
0 67 -20 84 -21 18 l-1 -43 -15 43 c-22 64 -43 55 -43 -18z"/>
<path d="M3490 1683 c1 -5 7 -19 15 -33 8 -14 14 -37 15 -52 0 -16 5 -28 10
-28 6 0 10 9 10 20 0 12 9 39 20 60 11 22 16 40 11 40 -6 0 -17 -12 -25 -27
l-14 -28 -11 28 c-9 24 -32 39 -31 20z"/>
</g>
</svg>
